inDegrees=no
num_controls=7
num_derivatives=13
num_iterations=397
num_multipliers=7
num_parameters=0
num_slacks=7
num_states=26
objective=5.804694
objective_accelerations=0.682543
objective_balance=0.120995
objective_effort=0.445955
objective_height=4.456541
objective_ligament=0.098660
solver_duration=4566.007535
status=Restoration_Failed
success=false
DataType=double
version=3
OpenSimVersion=4.4-2022-07-23-0e9fedc
endheader
time	/jointset/ground_pelvis/pelvis_tilt/value	/jointset/ground_pelvis/pelvis_tx/value	/jointset/ground_pelvis/pelvis_ty/value	/jointset/hip_l/hip_flexion_l/value	/jointset/hip_l/hip_adduction_l/value	/jointset/hip_l/hip_rotation_l/value	/jointset/back/lumbar_extension/value	/jointset/patellofemoral_l/patellar_flexion_l/value	/jointset/knee_l/knee_flexion_l/value	/jointset/knee_l/knee_adduction_l/value	/jointset/knee_l/knee_rotation_l/value	/jointset/ankle_l/ankle_angle_l/value	/jointset/subtalar_l/subtalar_angle_l/value	/jointset/ground_pelvis/pelvis_tilt/speed	/jointset/ground_pelvis/pelvis_tx/speed	/jointset/ground_pelvis/pelvis_ty/speed	/jointset/hip_l/hip_flexion_l/speed	/jointset/hip_l/hip_adduction_l/speed	/jointset/hip_l/hip_rotation_l/speed	/jointset/back/lumbar_extension/speed	/jointset/patellofemoral_l/patellar_flexion_l/speed	/jointset/knee_l/knee_flexion_l/speed	/jointset/knee_l/knee_adduction_l/speed	/jointset/knee_l/knee_rotation_l/speed	/jointset/ankle_l/ankle_angle_l/speed	/jointset/subtalar_l/subtalar_angle_l/speed	/forceset/tau_hip_flexion_l	/forceset/tau_hip_adduction_l	/forceset/tau_hip_rotation_l	/forceset/tau_knee_flexion_l	/forceset/tau_ankle_angle_l	/forceset/tau_subtalar_angle_l	/forceset/tau_lumbar_extension	lambda_cid13_p0	lambda_cid13_p1	lambda_cid13_p2	lambda_cid13_p3	lambda_cid13_p4	lambda_cid13_p5	lambda_cid14_p0	/jointset/ground_pelvis/pelvis_tilt/accel	/jointset/ground_pelvis/pelvis_tx/accel	/jointset/ground_pelvis/pelvis_ty/accel	/jointset/hip_l/hip_flexion_l/accel	/jointset/hip_l/hip_adduction_l/accel	/jointset/hip_l/hip_rotation_l/accel	/jointset/back/lumbar_extension/accel	/jointset/patellofemoral_l/patellar_flexion_l/accel	/jointset/knee_l/knee_flexion_l/accel	/jointset/knee_l/knee_adduction_l/accel	/jointset/knee_l/knee_rotation_l/accel	/jointset/ankle_l/ankle_angle_l/accel	/jointset/subtalar_l/subtalar_angle_l/accel	gamma_cid13_p0	gamma_cid13_p1	gamma_cid13_p2	gamma_cid13_p3	gamma_cid13_p4	gamma_cid13_p5	gamma_cid14_p0
1	-0.662737792617783	-0.1050173634180408	0.5829175560850537	1.989133350659922	-0.2863573979847852	0.1718433395905405	-0.436330608463875	1.288680279371467	1.288680279371474	-0.1744743285682053	0.1745159071466957	0.1661219500043179	-0.003524060109718368	-0.01247825939744543	0.0002450626096812267	-0.00366469940481696	0.01901734378298679	0.0005933614636639994	0.003053800095348209	-1.152201592822342e-05	0.007883761502165203	0.007883761502164089	-0.0002817688560111151	0.0002052312423291799	0.001798924286157204	0.0009968160907000698	-0.4527513953040083	0.00713901267207814	-0.01505221056478173	-0.2512967865671212	0.06729300458691127	0.02623908011692874	0.3614875519791632	-24.67420734873925	-6.941566658057153	0.551435189988142	13.70906852350295	-735.0849723104907	-42.47294714100451	-0.04014678981263403	1.88115330234183	0.1702370239141076	1.806519033722458	-6.524586412188731	-0.5010317997861179	-1.874468470713954	-0.01486149269659853	-5.064844843197756	-5.06484484319774	-0.07678621846397637	0.02543346899780855	-0.7170854578836976	-0.6803506010975027	8.204746860187882e-10	4.39953913481109e-09	-9.214632132511146e-09	-1.359124500105555e-09	2.507732745013805e-09	-4.146889496446697e-09	2.101759329369999e-10
1.01	-0.6627691615554719	-0.1050064461954023	0.5829711068736267	1.98899820120559	-0.2863754541607063	0.1717789934314859	-0.4363306933429466	1.288506212130306	1.288506212130319	-0.1744783232730648	0.1745182276931859	0.1661043773599897	-0.003546801273263127	0.006205975303382265	0.001939980165997784	0.01437126560150797	-0.04604007772328926	-0.004195566606999949	-0.01592323283565567	-2.551387604520071e-06	-0.04268863105584234	-0.04268863105584746	-0.000504305994967547	0.0002518820396374427	-0.005312041534731399	-0.005533946845093049	-0.4526673119725046	0.00717969173725062	-0.01506333215044196	-0.2511899900282475	0.06728970416431884	0.02628159906858783	0.3614394429195402	-24.66316471748515	-6.964886958144182	0.5584894069024289	13.66176445204982	-734.9383765806675	-42.50353399043481	-0.04016012499018935	1.862283781797348	0.1693593552386939	1.801595397436563	-6.495246897153027	-0.4664720407836657	-1.909355440363319	0.009211702033381319	-5.052148490948322	-5.052148490948905	0.006940179433311869	-0.006775012359610714	-0.7078899883888345	-0.6377762645202523	-2.724104157731165e-09	-5.002826902483954e-09	2.680696756931376e-08	2.442326656453984e-09	-5.464452948710192e-09	2.447829086996263e-08	-5.786497146613608e-09
1.02	-0.6626136431005792	-0.1049785317504507	0.5832049093449394	1.988212692160738	-0.2864411293633499	0.1715248699959241	-0.4363306014434171	1.287826678557797	1.287826678557814	-0.174484157821031	0.1745208035684361	0.1660157374886135	-0.00363451749110591	0.02489921911797502	0.003644507072316342	0.03238563714190782	-0.111054574321809	-0.008930443880762624	-0.03490165520944564	2.383369819078739e-05	-0.09320950476769987	-0.09320950476770895	-0.0006497374921459631	0.0002562969386759167	-0.01241452112351545	-0.01199819476889616	-0.4525832286409979	0.007220370802449042	-0.01507445373610466	-0.251083193489368	0.06728640374173368	0.02632411802027904	0.3613913338599142	-24.6594367535965	-6.985371895378096	0.5633157876497564	13.6480687723975	-734.885764073637	-42.49005742367337	-0.04015607127223511	1.882955125094689	0.1721588939146528	1.802200340537485	-6.516001430637563	-0.4902216404061805	-1.874746359271028	-0.01137860120218053	-5.054541073967757	-5.054541073967727	-0.06136509010896984	0.0169862893442623	-0.715388211462603	-0.6670475986998299	-6.951378668210926e-09	-1.592995362258948e-08	6.235850590443318e-08	5.987507638661125e-09	-1.333449871312347e-08	5.312787894866808e-08	-1.370349800189356e-08
1.03	-0.6622710837213123	-0.1049334930964021	0.5836186905140724	1.986777312553528	-0.2865538649629998	0.17108103204564	-0.4363302309295456	1.286642272301926	1.286642272301701	-0.1744911375704308	0.1745232635264476	0.1658560579211117	-0.003786529001654156	0.04362034306069913	0.00536786764789478	0.05036133879401017	-0.1760081450086702	-0.01360499376380394	-0.05386038582766427	4.610851532619568e-05	-0.1436552615434668	-0.1436552615434685	-0.0007379749131592211	0.0002333603536066684	-0.01952540307160227	-0.01839050875786657	-0.4521272881127444	0.007301597965794028	-0.01511790708787564	-0.2509135996473489	0.0674531320362244	0.02645581838138083	0.3611160595947059	-24.57725690761444	-7.063958009439314	0.5838397638470328	13.54137731007247	-734.5167196361559	-42.56570360065884	-0.04017780826450627	1.867842872121393	0.1731231537373525	1.793862105581766	-6.483056170147448	-0.4543311564927466	-1.905621723907791	0.00840643908041609	-5.037115873919515	-5.037115873918459	0.01867326900816249	-0.01230738204348872	-0.7095386899564537	-0.6232909272268997	-1.118561946100426e-08	-2.687263912517268e-08	9.79052476949944e-08	9.530073619089158e-09	-2.12035022333601e-08	8.177771608566225e-08	-2.164009403855851e-08
1.04	-0.6617410827339586	-0.1048710811337259	0.58421195010534	1.984692792982968	-0.2867129979603278	0.1704477697270171	-0.436329762484264	1.284953903899389	1.284953903898918	-0.174498754426572	0.1745254193684994	0.1656251494334342	-0.004002057177738438	0.0623875407338268	0.007119168797842717	0.0682813215676412	-0.2408825669930187	-0.01820992341643523	-0.072786528878303	4.341996883268779e-05	-0.1940019341007741	-0.1940019341007693	-0.0007771588499539432	0.0001954737841015624	-0.02666030515867707	-0.02470152787609104	-0.4516713475844911	0.007382825129143358	-0.01516136043961596	-0.2507440058053252	0.06761986033071762	0.02658751874248848	0.3608407853294933	-24.50241624226159	-7.13971068131998	0.602143303939444	13.46812039069872	-734.2419552285705	-42.59810952679847	-0.04032026447347424	1.89216987117527	0.177747008788659	1.791056564843274	-6.500171690135105	-0.4762975943243283	-1.86822884575486	-0.01637127392764885	-5.034724230275892	-5.034724230276022	-0.05155439326567295	0.01399629245723075	-0.7201922392600452	-0.6507886245507826	-1.517007238947233e-08	-3.76033519775809e-08	1.321220882970529e-07	1.265848921173118e-08	-2.862286238420949e-08	1.081552062348868e-07	-2.919557140712853e-08
1.05	-0.6610231968221634	-0.1047909907265972	0.5849840566744325	1.981960091198872	-0.2869178278925787	0.1696255195789585	-0.4363293993028974	1.282762659339049	1.282762659338721	-0.1745066402038424	0.174527186091237	0.1653227043710302	-0.004280294150058857	0.08119523238216589	0.008906063460597002	0.08612331704221637	-0.3056277360373424	-0.02274189875356733	-0.09165016993379879	3.011668979114973e-05	-0.2442206927400639	-0.244220692740062	-0.0007980157179728434	0.000159894917126394	-0.03383864880164165	-0.03093015077948257	-0.4508496905953799	0.007521487359930999	-0.0152348237108831	-0.2504857791978183	0.06793300907672159	0.02679463511489086	0.3603480441229471	-24.3560032323938	-7.265838834715923	0.6342927244091798	13.30589436616484	-733.6326320977182	-42.70218679835518	-0.04130791156751099	1.87590552281205	0.1802365064320472	1.778262477062803	-6.457184182903074	-0.4395430234599237	-1.893462261428092	0.006325204976248219	-5.011501472831232	-5.01150147283158	0.02292994166938985	-0.01207132761721868	-0.7181448529910581	-0.6065539127443242	-1.914671944718023e-08	-4.832744068467116e-08	1.662973694869707e-07	1.57739626047549e-08	-3.602817117976553e-08	1.344616855407435e-07	-3.673913881732059e-08
1.06	-0.6601170666516463	-0.1046928162105582	0.5859340814859367	1.978580838790077	-0.2871675566822108	0.1686150269151605	-0.4363291421424744	1.280070017233902	1.280070017233709	-0.1745146782947659	0.1745286497551113	0.1649481779869618	-0.004620348309315451	0.100036392476456	0.0107359905799261	0.1038649700488345	-0.370192691934556	-0.02718969489279659	-0.1104350320285418	2.221580550096439e-05	-0.2942814430623875	-0.2942814430623871	-0.0008076215764184948	0.0001348619964593394	-0.04107656949166039	-0.03706496526331519	-0.4500280336062547	0.007660149590736964	-0.01530828698213727	-0.2502275525903069	0.06824615782272953	0.02700175148731549	0.359855302916412	-24.21693908886517	-7.389300209434835	0.6644405692248392	13.17644334772345	-733.1174011796115	-42.76462475097346	-0.0437552237173067	1.898863560365379	0.1863535001037098	1.770988071251921	-6.46412906071315	-0.4594617547438535	-1.85247305360407	-0.01529079497731409	-5.003122566882697	-5.003122566882577	-0.04930419135137173	0.01610548171888633	-0.7321076486707421	-0.6320269406390805	-2.218451907065331e-08	-5.784150255655784e-08	1.925708383891852e-07	1.744504523510254e-08	-4.197174529663537e-08	1.538043981040954e-07	-4.270192715390036e-08
